HIERARCHY
ROOT Hips
{
  OFFSET 5.80788e-005 67.184 3.4734
  CHANNELS 6 Xposition Yposition Zposition Zrotation Xrotation Yrotation
  JOINT Chest
  {
    OFFSET 0 8.7983 -4.7612
    CHANNELS 6 Xposition Yposition Zposition Zrotation Xrotation Yrotation
    JOINT Chest2
    {
      OFFSET 0 8.0291 0.4195
      CHANNELS 6 Xposition Yposition Zposition Zrotation Xrotation Yrotation
      JOINT Chest3
      {
        OFFSET 0 9.9351 -2.2114
        CHANNELS 6 Xposition Yposition Zposition Zrotation Xrotation Yrotation
        JOINT Neck
        {
          OFFSET 0 22.3885 -0.4656
          CHANNELS 6 Xposition Yposition Zposition Zrotation Xrotation Yrotation
          JOINT Head
          {
            OFFSET -0.0001 12.643 3.4389
            CHANNELS 6 Xposition Yposition Zposition Zrotation Xrotation Yrotation
            End Site
            {
              OFFSET 0.0001 17.6655 0.5274
            }
          }
        }
        JOINT LeftCollar
        {
          OFFSET 2.2603 21.606 7.4023
          CHANNELS 6 Xposition Yposition Zposition Zrotation Xrotation Yrotation
          JOINT LeftShoulder
          {
            OFFSET 13.5163 -1.1332 -5.0146
            CHANNELS 6 Xposition Yposition Zposition Zrotation Xrotation Yrotation
            JOINT LeftElbow
            {
              OFFSET -0.0995 -28.05 -0.2431
              CHANNELS 6 Xposition Yposition Zposition Zrotation Xrotation Yrotation
              JOINT LeftWrist
              {
                OFFSET 0.0679 -23.3996 -0.1402
                CHANNELS 6 Xposition Yposition Zposition Zrotation Xrotation Yrotation
                JOINT LeftFinger1
                {
                  OFFSET 0.7932 -9.069 2.5189
                  CHANNELS 6 Xposition Yposition Zposition Zrotation Xrotation Yrotation
                  JOINT LeftFinger11
                  {
                    OFFSET -0.8272 -3.3923 0.5977
                    CHANNELS 6 Xposition Yposition Zposition Zrotation Xrotation Yrotation
                    JOINT LeftFinger12
                    {
                      OFFSET -0.5649 -2.3158 0.4082
                      CHANNELS 6 Xposition Yposition Zposition Zrotation Xrotation Yrotation
                      End Site
                      {
                        OFFSET -0.4919 -1.6479 0.2673
                      }
                    }
                  }
                }
                JOINT LeftFinger2
                {
                  OFFSET 0.9159 -9.2044 0.2193
                  CHANNELS 6 Xposition Yposition Zposition Zrotation Xrotation Yrotation
                  JOINT LeftFinger21
                  {
                    OFFSET 0.0117 -4.1944 -0.0248
                    CHANNELS 6 Xposition Yposition Zposition Zrotation Xrotation Yrotation
                    JOINT LeftFinger22
                    {
                      OFFSET 0.0071 -2.3249 -0.0142
                      CHANNELS 6 Xposition Yposition Zposition Zrotation Xrotation Yrotation
                      End Site
                      {
                        OFFSET -0.1475 -2.0882 0.0028
                      }
                    }
                  }
                }
                JOINT LeftFinger3
                {
                  OFFSET 0.6113 -8.7231 -2.0637
                  CHANNELS 6 Xposition Yposition Zposition Zrotation Xrotation Yrotation
                  JOINT LeftFinger31
                  {
                    OFFSET -0.1927 -3.8059 -0.2383
                    CHANNELS 6 Xposition Yposition Zposition Zrotation Xrotation Yrotation
                    JOINT LeftFinger32
                    {
                      OFFSET -0.1091 -2.1688 -0.1362
                      CHANNELS 6 Xposition Yposition Zposition Zrotation Xrotation Yrotation
                      End Site
                      {
                        OFFSET -0.2358 -1.9176 -0.0906
                      }
                    }
                  }
                }
                JOINT LeftFinger4
                {
                  OFFSET -0.6151 -8.0947 -3.5641
                  CHANNELS 6 Xposition Yposition Zposition Zrotation Xrotation Yrotation
                  JOINT LeftFinger41
                  {
                    OFFSET -0.4882 -2.341 -0.6462
                    CHANNELS 6 Xposition Yposition Zposition Zrotation Xrotation Yrotation
                    JOINT LeftFinger42
                    {
                      OFFSET -0.3575 -1.7167 -0.4742
                      CHANNELS 6 Xposition Yposition Zposition Zrotation Xrotation Yrotation
                      End Site
                      {
                        OFFSET -0.4187 -1.5237 -0.3496
                      }
                    }
                  }
                }
                JOINT LeftFinger0
                {
                  OFFSET -1.42 -1.8761 1.4223
                  CHANNELS 6 Xposition Yposition Zposition Zrotation Xrotation Yrotation
                  JOINT LeftFinger01
                  {
                    OFFSET -1.1471 -3.4929 2.6334
                    CHANNELS 6 Xposition Yposition Zposition Zrotation Xrotation Yrotation
                    JOINT LeftFinger02
                    {
                      OFFSET -0.823 -2.3 1.6571
                      CHANNELS 6 Xposition Yposition Zposition Zrotation Xrotation Yrotation
                      End Site
                      {
                        OFFSET -0.5822 -1.6914 1.1582
                      }
                    }
                  }
                }
              }
            }
          }
        }
        JOINT RightCollar
        {
          OFFSET -2.2603 21.606 7.4023
          CHANNELS 6 Xposition Yposition Zposition Zrotation Xrotation Yrotation
          JOINT RightShoulder
          {
            OFFSET -13.5187 -1.1334 -5.0155
            CHANNELS 6 Xposition Yposition Zposition Zrotation Xrotation Yrotation
            JOINT RightElbow
            {
              OFFSET 0.0994 -28.0499 -0.2431
              CHANNELS 6 Xposition Yposition Zposition Zrotation Xrotation Yrotation
              JOINT RightWrist
              {
                OFFSET -0.0679 -23.3996 -0.1402
                CHANNELS 6 Xposition Yposition Zposition Zrotation Xrotation Yrotation
                JOINT RightFinger1
                {
                  OFFSET -0.7932 -9.0691 2.5189
                  CHANNELS 6 Xposition Yposition Zposition Zrotation Xrotation Yrotation
                  JOINT RightFinger11
                  {
                    OFFSET 0.8272 -3.3923 0.5977
                    CHANNELS 6 Xposition Yposition Zposition Zrotation Xrotation Yrotation
                    JOINT RightFinger12
                    {
                      OFFSET 0.565 -2.3158 0.4082
                      CHANNELS 6 Xposition Yposition Zposition Zrotation Xrotation Yrotation
                      End Site
                      {
                        OFFSET 0.4919 -1.6479 0.2673
                      }
                    }
                  }
                }
                JOINT RightFinger2
                {
                  OFFSET -0.916 -9.2044 0.2193
                  CHANNELS 6 Xposition Yposition Zposition Zrotation Xrotation Yrotation
                  JOINT RightFinger21
                  {
                    OFFSET -0.0117 -4.1944 -0.0248
                    CHANNELS 6 Xposition Yposition Zposition Zrotation Xrotation Yrotation
                    JOINT RightFinger22
                    {
                      OFFSET -0.0071 -2.3249 -0.0142
                      CHANNELS 6 Xposition Yposition Zposition Zrotation Xrotation Yrotation
                      End Site
                      {
                        OFFSET 0.1475 -2.0882 0.0028
                      }
                    }
                  }
                }
                JOINT RightFinger3
                {
                  OFFSET -0.6113 -8.7231 -2.0637
                  CHANNELS 6 Xposition Yposition Zposition Zrotation Xrotation Yrotation
                  JOINT RightFinger31
                  {
                    OFFSET 0.1927 -3.8059 -0.2383
                    CHANNELS 6 Xposition Yposition Zposition Zrotation Xrotation Yrotation
                    JOINT RightFinger32
                    {
                      OFFSET 0.1091 -2.1688 -0.1362
                      CHANNELS 6 Xposition Yposition Zposition Zrotation Xrotation Yrotation
                      End Site
                      {
                        OFFSET 0.2358 -1.9176 -0.0906
                      }
                    }
                  }
                }
                JOINT RightFinger4
                {
                  OFFSET 0.6151 -8.0947 -3.564
                  CHANNELS 6 Xposition Yposition Zposition Zrotation Xrotation Yrotation
                  JOINT RightFinger41
                  {
                    OFFSET 0.4882 -2.341 -0.6462
                    CHANNELS 6 Xposition Yposition Zposition Zrotation Xrotation Yrotation
                    JOINT RightFinger42
                    {
                      OFFSET 0.3574 -1.7166 -0.4742
                      CHANNELS 6 Xposition Yposition Zposition Zrotation Xrotation Yrotation
                      End Site
                      {
                        OFFSET 0.4187 -1.5237 -0.3496
                      }
                    }
                  }
                }
                JOINT RightFinger0
                {
                  OFFSET 1.4199 -1.8761 1.4221
                  CHANNELS 6 Xposition Yposition Zposition Zrotation Xrotation Yrotation
                  JOINT RightFinger01
                  {
                    OFFSET 1.1472 -3.4929 2.6336
                    CHANNELS 6 Xposition Yposition Zposition Zrotation Xrotation Yrotation
                    JOINT RightFinger02
                    {
                      OFFSET 0.8229 -2.3 1.6571
                      CHANNELS 6 Xposition Yposition Zposition Zrotation Xrotation Yrotation
                      End Site
                      {
                        OFFSET 0.5822 -1.6914 1.1582
                      }
                    }
                  }
                }
              }
            }
          }
        }
      }
    }
  }
  JOINT RightHip
  {
    OFFSET -9.412 3.9771 -0.7758
    CHANNELS 6 Xposition Yposition Zposition Zrotation Xrotation Yrotation
    JOINT RightKnee
    {
      OFFSET -0.7531 -40.938 0
      CHANNELS 6 Xposition Yposition Zposition Zrotation Xrotation Yrotation
      JOINT RightAnkle
      {
        OFFSET 0 -40.1986 0
        CHANNELS 6 Xposition Yposition Zposition Zrotation Xrotation Yrotation
        JOINT RightToe
        {
          OFFSET 0 -4.4182 9.239
          CHANNELS 6 Xposition Yposition Zposition Zrotation Xrotation Yrotation
          End Site
          {
            OFFSET 0 0 6.1981
          }
        }
      }
    }
  }
  JOINT LeftHip
  {
    OFFSET 9.4119 3.9773 -0.7758
    CHANNELS 6 Xposition Yposition Zposition Zrotation Xrotation Yrotation
    JOINT LeftKnee
    {
      OFFSET 0.7532 -40.9383 0
      CHANNELS 6 Xposition Yposition Zposition Zrotation Xrotation Yrotation
      JOINT LeftAnkle
      {
        OFFSET 0 -40.1986 0
        CHANNELS 6 Xposition Yposition Zposition Zrotation Xrotation Yrotation
        JOINT LeftToe
        {
          OFFSET 0 -4.4182 9.239
          CHANNELS 6 Xposition Yposition Zposition Zrotation Xrotation Yrotation
          End Site
          {
            OFFSET 0 0 6.1981
          }
        }
      }
    }
  }
}
MOTION
Frames:	4
Frame Time:	0.0333333
1.63382 40.8822 1.55675 8.59163e-008 32.9236 -5.02432e-007 2.22045e-016 8.7983 -4.7612 -1.27926 -1.0165 -1.77604 3.747e-016 8.0291 0.4195 -2.59001 -1.99262 -3.57516 0 9.9351 -2.2114 -2.59 -1.99262 -3.57515 -1.77636e-015 22.3885 -0.4656 -2.73772e-005 8.22755 -5.3063e-005 -0.0001 12.643 3.4389 -0.0630123 13.7399 0.00958842 2.2603 21.606 7.4023 -11.2818 -4.31813 -52.2376 13.5163 -1.1332 -5.0146 38.6361 32.9619 28.2036 -0.0995 -28.05 -0.2431 -50.7907 -44.9338 -29.1455 0.0679 -23.3996 -0.1402 38.5184 -21.3906 34.2753 0.7932 -9.069 2.5189 -1.59028e-015 -2.22639e-014 9.93923e-016 -0.8272 -3.3923 0.5977 -3.97569e-016 -1.27222e-014 2.5842e-015 -0.5649 -2.3158 0.4082 -7.95139e-016 -1.27222e-014 1.39149e-015 0.9159 -9.2044 0.2193 -1.59028e-015 -2.22639e-014 9.93923e-016 0.0117 -4.1944 -0.0248 -0.0128181 0.00231988 8.79383e-005 0.0071 -2.3249 -0.0142 -7.95139e-016 9.54166e-015 -5.96354e-016 0.6113 -8.7231 -2.0637 -1.59028e-015 -2.22639e-014 9.93923e-016 -0.1927 -3.8059 -0.2383 -0.0160517 0.00300582 0.000857988 -0.1091 -2.1688 -0.1362 -1.19271e-015 9.54166e-015 -7.95139e-016 -0.6151 -8.0947 -3.5641 -1.59028e-015 -2.22639e-014 9.93923e-016 -0.4882 -2.341 -0.6462 -0.0125927 0.00312288 0.00282337 -0.3575 -1.7167 -0.4742 -1.19271e-015 -3.18055e-015 7.95139e-016 -1.42 -1.8761 1.4223 -1.59028e-015 -2.22639e-014 9.93923e-016 -1.1471 -3.4929 2.6334 -3.97569e-016 -1.27222e-014 2.5842e-015 -0.823 -2.3 1.6571 -7.95139e-016 -1.27222e-014 1.39149e-015 -2.2603 21.606 7.4023 46.8241 -4.02665 -7.08304 -13.5187 -1.1334 -5.0155 -51.1168 23.617 -19.7035 0.0994 -28.0499 -0.2431 39.2976 -2.16192 15.9511 -0.0679 -23.3996 -0.1402 30.7953 -16.5328 -47.1164 -0.7932 -9.0691 2.5189 -4.77083e-015 0 -0 0.8272 -3.3923 0.5977 -4.77083e-015 -3.57812e-015 -0 0.565 -2.3158 0.4082 -4.77083e-015 -7.05686e-015 -0 -0.916 -9.2044 0.2193 -4.77083e-015 0 -0 -0.0117 -4.1944 -0.0248 0.0129426 0.00232084 -8.21493e-005 -0.0071 -2.3249 -0.0142 1.59028e-015 -3.57812e-015 7.95139e-016 -0.6113 -8.7231 -2.0637 -4.77083e-015 0 -0 0.1927 -3.8059 -0.2383 0.0163307 0.00304779 -0.000869437 0.1091 -2.1688 -0.1362 -2.91316e-007 -6.093e-006 -7.84379e-006 0.6151 -8.0947 -3.564 -4.77083e-015 0 -0 0.4882 -2.341 -0.6462 0.0145501 0.00367021 -0.00325986 0.3574 -1.7166 -0.4742 6.31877e-006 -6.18407e-007 2.98853e-006 1.4199 -1.8761 1.4221 -4.77083e-015 0 -0 1.1472 -3.4929 2.6336 -4.77083e-015 -3.57812e-015 -0 0.8229 -2.3 1.6571 -4.77083e-015 -7.05686e-015 -0 -9.412 3.9771 -0.7758 -59.8171 -18.137 -20.3782 -0.7531 -40.938 -4.44089e-016 -174.16 87.5362 172.603 0 -40.1986 0 49.1536 37.1268 -54.7258 0 -4.4182 9.239 1.97129e-006 1.07842e-007 2.78826e-006 9.4119 3.9773 -0.7758 59.7755 -18.1706 20.3028 0.7532 -40.9383 0 175.512 87.5376 -173.946 7.10543e-015 -40.1986 0 -49.2565 37.0902 54.7836 0 -4.4182 9.239 1.24056e-005 -4.60629e-006 -6.69518e-006 
1.63381 40.9133 1.30964 -9.02427e-007 33.3493 -3.53987e-007 2.22045e-016 8.7983 -4.7612 -1.27927 -1.01651 -1.77605 -8.32667e-017 8.0291 0.4195 -2.59002 -1.99263 -3.57517 -8.88179e-016 9.9351 -2.2114 -2.59002 -1.99263 -3.57518 0 22.3885 -0.4656 -3.26101e-006 7.59262 -6.27845e-006 -0.0001 12.643 3.4389 -0.0618791 12.7181 0.00958901 2.2603 21.606 7.4023 -11.1802 -4.50408 -52.268 13.5163 -1.1332 -5.0146 38.6344 32.9431 28.2037 -0.0995 -28.05 -0.2431 -51.2879 -45.128 -29.5344 0.0679 -23.3996 -0.1402 38.6372 -21.2705 34.1962 0.7932 -9.069 2.5189 -7.95139e-016 1.59028e-014 2.18663e-015 -0.8272 -3.3923 0.5977 -2.75869e-031 1.59028e-014 9.93923e-016 -0.5649 -2.3158 0.4082 -1.19271e-015 1.27222e-014 3.97569e-016 0.9159 -9.2044 0.2193 -7.95139e-016 1.59028e-014 2.18663e-015 0.0117 -4.1944 -0.0248 -0.0128219 0.00232137 8.50033e-005 0.0071 -2.3249 -0.0142 2.64834e-031 6.36111e-015 -2.38542e-015 0.6113 -8.7231 -2.0637 -7.95139e-016 1.59028e-014 2.18663e-015 -0.1927 -3.8059 -0.2383 -0.0160544 0.00299055 0.000850347 -0.1091 -2.1688 -0.1362 3.97569e-016 -3.18055e-015 2.18663e-015 -0.6151 -8.0947 -3.5641 -7.95139e-016 1.59028e-014 2.18663e-015 -0.4882 -2.341 -0.6462 -0.0125777 0.00311681 0.00282456 -0.3575 -1.7167 -0.4742 -5.10748e-006 -2.61385e-006 6.24445e-006 -1.42 -1.8761 1.4223 -7.95139e-016 1.59028e-014 2.18663e-015 -1.1471 -3.4929 2.6334 -2.75869e-031 1.59028e-014 9.93923e-016 -0.823 -2.3 1.6571 -1.19271e-015 1.27222e-014 3.97569e-016 -2.2603 21.606 7.4023 46.8241 -4.02661 -7.08302 -13.5187 -1.1334 -5.0155 -51.0982 23.8107 -19.7354 0.0994 -28.0499 -0.2431 39.2976 -2.16199 15.9511 -0.0679 -23.3996 -0.1402 30.7953 -16.5328 -47.1163 -0.7932 -9.0691 2.5189 -1.82074e-031 6.55989e-015 1.59028e-015 0.8272 -3.3923 0.5977 -1.86614e-006 2.06607e-006 -1.09491e-005 0.565 -2.3158 0.4082 3.18055e-015 5.96354e-015 -0 -0.916 -9.2044 0.2193 -1.82074e-031 6.55989e-015 1.59028e-015 -0.0117 -4.1944 -0.0248 0.0129639 0.00234281 -8.77014e-005 -0.0071 -2.3249 -0.0142 -4.77083e-015 -7.55382e-015 3.18055e-015 -0.6113 -8.7231 -2.0637 -1.82074e-031 6.55989e-015 1.59028e-015 0.1927 -3.8059 -0.2383 0.0163523 0.00303029 -0.000877546 0.1091 -2.1688 -0.1362 -7.43372e-006 1.46468e-005 -2.38358e-006 0.6151 -8.0947 -3.564 -1.82074e-031 6.55989e-015 1.59028e-015 0.4882 -2.341 -0.6462 0.0145868 0.00367686 -0.00327277 0.3574 -1.7166 -0.4742 -3.18055e-015 1.15295e-014 3.18055e-015 1.4199 -1.8761 1.4221 -1.82074e-031 6.55989e-015 1.59028e-015 1.1472 -3.4929 2.6336 -1.86614e-006 2.06607e-006 -1.09491e-005 0.8229 -2.3 1.6571 3.18055e-015 5.96354e-015 -0 -9.412 3.9771 -0.7758 -59.8464 -18.7166 -20.5474 -0.7531 -40.938 0 -174.277 87.2353 172.715 0 -40.1986 3.55271e-015 49.4813 36.9938 -54.8989 3.55271e-015 -4.4182 9.239 9.85644e-007 -2.6702e-006 1.39413e-006 9.4119 3.9773 -0.7758 59.8048 -18.7492 20.4721 0.7532 -40.9383 -4.44089e-016 175.482 87.2373 -173.911 -7.10543e-015 -40.1986 -7.10543e-015 -49.5829 36.9568 54.9556 3.55271e-015 -4.4182 9.239 -3.97569e-016 -9.54166e-015 -8.94531e-016 
1.63381 40.9448 1.06261 3.16751e-008 33.7749 -5.69766e-008 0 8.7983 -4.7612 -1.27928 -1.01652 -1.77607 2.77556e-016 8.0291 0.4195 -2.59005 -1.99264 -3.57521 8.88179e-016 9.9351 -2.2114 -2.59005 -1.99265 -3.5752 1.77636e-015 22.3885 -0.4656 5.55894e-005 6.95695 8.90049e-005 -0.0001 12.643 3.4389 -0.0607412 11.6931 0.00958514 2.2603 21.606 7.4023 -11.0788 -4.69005 -52.298 13.5163 -1.1332 -5.0146 38.6348 32.921 28.2026 -0.0995 -28.05 -0.2431 -51.7855 -45.3175 -29.9229 0.0679 -23.3996 -0.1402 38.7562 -21.1505 34.1168 0.7932 -9.069 2.5189 7.95139e-016 -6.36111e-015 -2.78299e-015 -0.8272 -3.3923 0.5977 -0 -6.36111e-015 -0 -0.5649 -2.3158 0.4082 7.95139e-016 3.18055e-015 5.96354e-016 0.9159 -9.2044 0.2193 7.95139e-016 -6.36111e-015 -2.78299e-015 0.0117 -4.1944 -0.0248 -0.0128223 0.0023266 9.02556e-005 0.0071 -2.3249 -0.0142 7.95139e-016 -6.36111e-015 3.97569e-016 0.6113 -8.7231 -2.0637 7.95139e-016 -6.36111e-015 -2.78299e-015 -0.1927 -3.8059 -0.2383 -0.0160499 0.00299278 0.000852153 -0.1091 -2.1688 -0.1362 3.97569e-016 9.54166e-015 2.5842e-015 -0.6151 -8.0947 -3.5641 7.95139e-016 -6.36111e-015 -2.78299e-015 -0.4882 -2.341 -0.6462 -0.0126002 0.00311892 0.00282809 -0.3575 -1.7167 -0.4742 -1.59028e-015 9.54166e-015 2.98177e-015 -1.42 -1.8761 1.4223 7.95139e-016 -6.36111e-015 -2.78299e-015 -1.1471 -3.4929 2.6334 -0 -6.36111e-015 -0 -0.823 -2.3 1.6571 7.95139e-016 3.18055e-015 5.96354e-016 -2.2603 21.606 7.4023 46.8242 -4.0265 -7.08301 -13.5187 -1.1334 -5.0155 -51.0797 24.0041 -19.7674 0.0994001 -28.0499 -0.2431 39.2976 -2.16183 15.951 -0.0679 -23.3996 -0.1402 30.7953 -16.5328 -47.1164 -0.7932 -9.0691 2.5189 -1.59028e-015 1.08338e-014 7.95139e-016 0.8272 -3.3923 0.5977 5.20051e-007 1.6353e-005 -9.9009e-007 0.565 -2.3158 0.4082 -3.18055e-015 3.08116e-015 3.18055e-015 -0.916 -9.2044 0.2193 -1.59028e-015 1.08338e-014 7.95139e-016 -0.0117 -4.1944 -0.0248 0.0129561 0.00232171 -9.19887e-005 -0.0071 -2.3249 -0.0142 -1.59028e-015 1.39149e-015 7.95139e-016 -0.6113 -8.7231 -2.0637 -1.59028e-015 1.08338e-014 7.95139e-016 0.1927 -3.8059 -0.2383 0.0163643 0.00304482 -0.000872405 0.1091 -2.1688 -0.1362 1.59028e-015 -1.2424e-014 7.95139e-016 0.6151 -8.0947 -3.564 -1.59028e-015 1.08338e-014 7.95139e-016 0.4882 -2.341 -0.6462 0.0145897 0.00367514 -0.00327285 0.3574 -1.7166 -0.4742 8.27607e-033 -2.98177e-016 1.59028e-015 1.4199 -1.8761 1.4221 -1.59028e-015 1.08338e-014 7.95139e-016 1.1472 -3.4929 2.6336 5.20051e-007 1.6353e-005 -9.9009e-007 0.8229 -2.3 1.6571 -3.18055e-015 3.08116e-015 3.18055e-015 -9.412 3.9771 -0.7758 -59.8776 -19.2959 -20.7175 -0.7531 -40.938 -4.44089e-016 -174.37 86.9345 172.803 -7.10543e-015 -40.1986 0 49.8079 36.8598 -55.0707 0 -4.4182 9.239 -2.31663e-006 -2.95856e-006 -2.48362e-006 9.4119 3.9773 -0.7758 59.8358 -19.3276 20.6423 0.7532 -40.9383 -8.88178e-016 175.457 86.9369 -173.881 0 -40.1986 -3.55271e-015 -49.9083 36.8224 55.1262 -3.55271e-015 -4.4182 9.239 7.98575e-007 2.95961e-007 -4.73625e-006 
1.6338 40.9767 0.815656 0 34.2006 -0 0 8.7983 -4.7612 -1.27926 -1.01651 -1.77604 -2.77556e-016 8.0291 0.4195 -2.59001 -1.99261 -3.57516 -4.44089e-016 9.9351 -2.2114 -2.59001 -1.99262 -3.57515 3.55271e-015 22.3885 -0.4656 -3.00996e-005 6.32046 -5.17652e-005 -0.0001 12.643 3.4389 -0.0595979 10.665 0.0095901 2.2603 21.606 7.4023 -10.9775 -4.87617 -52.3279 13.5163 -1.1332 -5.0146 38.6291 32.9086 28.2049 -0.0995 -28.05 -0.2431 -52.2956 -45.5114 -30.3274 0.0679 -23.3996 -0.1402 38.8752 -21.0307 34.0373 0.7932 -9.069 2.5189 0 9.54166e-015 -0 -0.8272 -3.3923 0.5977 7.95139e-016 3.18055e-015 -1.98785e-016 -0.5649 -2.3158 0.4082 7.95139e-016 6.36111e-015 1.59028e-015 0.9159 -9.2044 0.2193 0 9.54166e-015 -0 0.0117 -4.1944 -0.0248 -0.0128205 0.00231962 8.56364e-005 0.0071 -2.3249 -0.0142 -7.95139e-016 -9.54166e-015 -3.37934e-015 0.6113 -8.7231 -2.0637 0 9.54166e-015 -0 -0.1927 -3.8059 -0.2383 -0.016049 0.00299099 0.000857077 -0.1091 -2.1688 -0.1362 3.97569e-016 9.54166e-015 -0 -0.6151 -8.0947 -3.5641 0 9.54166e-015 -0 -0.4882 -2.341 -0.6462 -0.0125981 0.00311958 0.0028363 -0.3575 -1.7167 -0.4742 3.97569e-016 -6.36111e-015 -3.97569e-016 -1.42 -1.8761 1.4223 0 9.54166e-015 -0 -1.1471 -3.4929 2.6334 7.95139e-016 3.18055e-015 -1.98785e-016 -0.823 -2.3 1.6571 7.95139e-016 6.36111e-015 1.59028e-015 -2.2603 21.606 7.4023 46.8241 -4.02665 -7.08305 -13.5187 -1.1334 -5.0155 -51.0609 24.1976 -19.7995 0.0994 -28.0499 -0.2431 39.2976 -2.16178 15.951 -0.0679 -23.3996 -0.1402 30.7953 -16.5328 -47.1164 -0.7932 -9.0691 2.5189 -6.36111e-015 2.88238e-015 3.18055e-015 0.8272 -3.3923 0.5977 -4.77083e-015 8.44835e-015 1.59028e-015 0.565 -2.3158 0.4082 -3.18055e-015 1.09332e-015 3.18055e-015 -0.916 -9.2044 0.2193 -6.36111e-015 2.88238e-015 3.18055e-015 -0.0117 -4.1944 -0.0248 0.0129635 0.00231789 -8.32086e-005 -0.0071 -2.3249 -0.0142 -1.59028e-015 -3.57812e-015 -0 -0.6113 -8.7231 -2.0637 -6.36111e-015 2.88238e-015 3.18055e-015 0.1927 -3.8059 -0.2383 0.0163328 0.00305312 -0.000870958 0.1091 -2.1688 -0.1362 -4.74495e-031 -8.54774e-015 -3.18055e-015 0.6151 -8.0947 -3.564 -6.36111e-015 2.88238e-015 3.18055e-015 0.4882 -2.341 -0.6462 0.014565 0.00368371 -0.00326233 0.3574 -1.7166 -0.4742 -1.59028e-015 -3.37934e-015 -1.59028e-015 1.4199 -1.8761 1.4221 -6.36111e-015 2.88238e-015 3.18055e-015 1.1472 -3.4929 2.6336 -4.77083e-015 8.44835e-015 1.59028e-015 0.8229 -2.3 1.6571 -3.18055e-015 1.09332e-015 3.18055e-015 -9.412 3.9771 -0.7758 -59.9104 -19.8751 -20.8886 -0.7531 -40.938 0 -174.448 86.6335 172.876 7.10543e-015 -40.1986 -3.55271e-015 50.1332 36.7247 -55.2411 3.55271e-015 -4.4182 9.239 -1.99397e-005 -1.4798e-006 -4.75522e-006 9.4119 3.9773 -0.7758 59.8684 -19.906 20.8134 0.7532 -40.9383 4.44089e-016 175.438 86.6364 -173.857 -7.10543e-015 -40.1986 -3.55271e-015 -50.2324 36.6871 55.2955 0 -4.4182 9.239 5.96354e-016 3.18055e-015 -9.93923e-016 
